inDegrees=no
num_controls=7
num_derivatives=13
num_iterations=74
num_multipliers=7
num_parameters=0
num_slacks=7
num_states=26
objective=0.457037
objective_accelerations=0.044599
objective_balance=0.000964
objective_effort=0.034747
objective_height=0.370814
objective_ligament=0.005913
solver_duration=879.692033
status=Solve_Succeeded
success=true
DataType=double
version=3
OpenSimVersion=4.5
endheader
time	/jointset/ground_pelvis/pelvis_tilt/value	/jointset/ground_pelvis/pelvis_tx/value	/jointset/ground_pelvis/pelvis_ty/value	/jointset/hip_r/hip_flexion_r/value	/jointset/hip_r/hip_adduction_r/value	/jointset/hip_r/hip_rotation_r/value	/jointset/back/lumbar_extension/value	/jointset/patellofemoral_r/patellar_flexion_r/value	/jointset/knee_r/knee_flexion_r/value	/jointset/knee_r/knee_adduction_r/value	/jointset/knee_r/knee_rotation_r/value	/jointset/ankle_r/ankle_angle_r/value	/jointset/subtalar_r/subtalar_angle_r/value	/jointset/ground_pelvis/pelvis_tilt/speed	/jointset/ground_pelvis/pelvis_tx/speed	/jointset/ground_pelvis/pelvis_ty/speed	/jointset/hip_r/hip_flexion_r/speed	/jointset/hip_r/hip_adduction_r/speed	/jointset/hip_r/hip_rotation_r/speed	/jointset/back/lumbar_extension/speed	/jointset/patellofemoral_r/patellar_flexion_r/speed	/jointset/knee_r/knee_flexion_r/speed	/jointset/knee_r/knee_adduction_r/speed	/jointset/knee_r/knee_rotation_r/speed	/jointset/ankle_r/ankle_angle_r/speed	/jointset/subtalar_r/subtalar_angle_r/speed	/forceset/tau_hip_flexion_r	/forceset/tau_hip_adduction_r	/forceset/tau_hip_rotation_r	/forceset/tau_knee_flexion_r	/forceset/tau_ankle_angle_r	/forceset/tau_subtalar_angle_r	/forceset/tau_lumbar_extension	lambda_cid13_p0	lambda_cid14_p0	lambda_cid14_p1	lambda_cid14_p2	lambda_cid14_p3	lambda_cid14_p4	lambda_cid14_p5	/jointset/ground_pelvis/pelvis_tilt/accel	/jointset/ground_pelvis/pelvis_tx/accel	/jointset/ground_pelvis/pelvis_ty/accel	/jointset/hip_r/hip_flexion_r/accel	/jointset/hip_r/hip_adduction_r/accel	/jointset/hip_r/hip_rotation_r/accel	/jointset/back/lumbar_extension/accel	/jointset/patellofemoral_r/patellar_flexion_r/accel	/jointset/knee_r/knee_flexion_r/accel	/jointset/knee_r/knee_adduction_r/accel	/jointset/knee_r/knee_rotation_r/accel	/jointset/ankle_r/ankle_angle_r/accel	/jointset/subtalar_r/subtalar_angle_r/accel	gamma_cid13_p0	gamma_cid14_p0	gamma_cid14_p1	gamma_cid14_p2	gamma_cid14_p3	gamma_cid14_p4	gamma_cid14_p5
1.5	-0.05179075524326857	0.04027917334436468	0.8303707738783725	0.7403479715054716	-0.2185498218691917	-0.1453259023646484	-0.6165502953908424	0.8954023147267434	0.8954023147267285	-0.05597481382060217	0.1744697987665987	0.2999678044824955	0.1479538155206933	0.3860705367198006	0.207252083265789	0.4553753679283941	-1.822129389009651	0.02202571599200774	-0.1675011219966486	0.8011666793512492	-1.856030967966542	-1.856030967966593	0.4437456009681988	0.0007133922548805716	-0.5262172653763488	-0.1814143727874417	-0.1381061862116998	0.008692894559010679	0.01869814717822076	-0.307705714895582	0.01853477815397034	-0.006765120318172923	0.1989147956768836	-11.69146167560049	-36.80650631671357	-8.992369703748096	1.409775650788091	-2.1435439582608	-632.1900629112997	59.38457550050904	0.07199793700388082	0.4911056588931796	-0.473236306253852	-0.8701923788337775	-0.2118451032790049	-0.5935404895181622	1.626121616833229	-1.221242036259831	-1.221242036259829	0.4148378658432315	-0.007151903155159565	-0.5763103167673613	-0.3731659532308666	9.928731333841851e-08	1.148908984917383e-07	-3.232214839911416e-07	1.280378791947816e-06	-2.812999632250932e-08	2.111803999845945e-07	-3.796338524802401e-07
1.51	-0.04792679705159999	0.04237602087064794	0.8348999471117575	0.7220851572536674	-0.2183408644837529	-0.1470298709466904	-0.6084585981186419	0.8767834481773142	0.876783448177293	-0.05151514729302075	0.1744770362499909	0.2946774129977331	0.1461203026211478	0.3866657260326177	0.2120918338454272	0.4503647907432786	-1.830194421690172	0.01975341537034442	-0.1732765648513802	0.8170659198100619	-1.867481568110652	-1.867481568110722	0.4481739116937916	0.0007207928186707136	-0.5317780294770162	-0.1852583400334248	-0.1316686035933839	0.006929879135108105	0.01846422558483533	-0.3038829607938655	0.02010565216250925	-0.007264917771500711	0.1928651768452396	-12.65560057635368	-36.04098992952215	-8.891601213088126	1.183773508991925	-2.253254509064917	-627.9591362057251	59.36865338774953	0.04498168137664142	0.4765732253724659	-0.5291016121810294	-0.7387910281351363	-0.2366623201983223	-0.5669672344315874	1.555796968567087	-1.067872305594864	-1.067872305597694	0.4546990537192787	0.002868135501411072	-0.5334876241276717	-0.385497016449498	9.768936234998201e-08	9.656759495189097e-08	-4.665256261890395e-07	1.102199045319819e-06	-3.988344932129099e-09	2.038450552819973e-07	-4.645180372564732e-07
1.52	-0.04405854651621078	0.0445204985963022	0.8393761879357833	0.7037488662119668	-0.2181549780602456	-0.1487910781674775	-0.6002111141002202	0.8580578949660311	0.8580578949659844	-0.04701162338261772	0.1744839841588861	0.2893339082384818	0.1442492530679093	0.3869290054636756	0.2167781231399847	0.4447888860565318	-1.83682474698965	0.01741152360514279	-0.1789488497453495	0.8323240285953482	-1.877368300339092	-1.877368300339181	0.4525170775314601	0.0006554773566791808	-0.5368399202741326	-0.1889217035261083	-0.1252310209750521	0.005166863711211386	0.01823030399135054	-0.3000602066921573	0.02167652617104881	-0.007764715224819611	0.1868155580136102	-13.61768408764058	-35.27778023547108	-8.790900551426237	0.9573978479716639	-2.372675933166851	-623.7543227582743	59.40098232906677	0.005615960652014381	0.460413401877047	-0.5863018065801217	-0.5832509026253139	-0.2257633319866283	-0.5729088973656588	1.49789528212786	-0.9084684531258144	-0.9084684531258145	0.3978088882583847	-0.0216951083115863	-0.4765356560571185	-0.3370452025708775	9.735627690328558e-08	8.090780905875745e-08	-6.061306678305716e-07	9.478501470972879e-07	1.813539771905377e-08	1.992369446932999e-07	-5.457431538126955e-07
1.53	-0.04018936279318405	0.04671102491228592	0.8437939107272481	0.6853534898521462	-0.2179927221909075	-0.1506093190223042	-0.5918143634162718	0.8392412151015319	0.8392412151015264	-0.04246590867681776	0.1744902938667885	0.2839423299654165	0.1423427093492591	0.3868478640008998	0.2212964089104044	0.4386677848352137	-1.842003633957828	0.01503628018325663	-0.1847101200662307	0.8469079066922026	-1.88570516600341	-1.885705166003484	0.4565790363996092	0.0006062395988324009	-0.5413882906081849	-0.1923439331991666	-0.1187157489867069	0.003277518682302925	0.01802734694171422	-0.2965002528762248	0.02342246854170953	-0.008340753422702549	0.1807165182538086	-14.57398626648894	-34.48213111620185	-8.727206783607311	0.7478598740033296	-2.488324743669931	-619.7831809666445	59.43758902719632	-0.02395536822315153	0.4429362549656309	-0.6381580679118772	-0.4481664072784785	-0.2438578608743228	-0.5791958909079344	1.420903848131323	-0.7569394211997793	-0.7569394211974293	0.4032668844133334	0.003551040562476334	-0.4308416410798844	-0.3383848202430496	9.836711109468794e-08	6.80780106652573e-08	-7.418054151309646e-07	8.188215253055653e-07	3.81151123348395e-08	1.975265203506212e-07	-6.230805103851566e-07
1.54	-0.03632278571847992	0.04894581410404202	0.8481477937488987	0.666913732859974	-0.2178543093585019	-0.1524854645386348	-0.583275319996421	0.8203490378207685	0.8203490378208009	-0.03788099888266908	0.1744961290271287	0.2785078972052108	0.1404032287397647	0.3864076757988943	0.2256306982944591	0.4320209320937201	-1.845700873460585	0.01264291621798012	-0.1905297820454581	0.8607825757757427	-1.892467783592327	-1.892467783592384	0.4603560952005635	0.0005605678443399125	-0.5454108177022606	-0.1955090816950169	-0.1122004769983473	0.001388173653389856	0.01782438989206995	-0.2929402990602895	0.02516841091236907	-0.00891679162059251	0.1746174784940208	-15.52193577855152	-33.6890622846706	-8.664376686052613	0.5389299107988175	-2.611110013255084	-615.8415752577203	59.516390245243	-0.06619338719394716	0.4236141246040497	-0.691452110615238	-0.2869214095411874	-0.2293874406646705	-0.5845872290348076	1.356053479464979	-0.5936188380454805	-0.5936188380454674	0.3408288748194117	-0.02098190764082274	-0.3713670080617706	-0.2856289671292266	1.000986064021735e-07	5.638907804611208e-08	-8.774807048481017e-07	6.849474582609046e-07	5.747900621216742e-08	1.950361736284359e-07	-6.887699624994575e-07
1.55	-0.03246238292213641	0.05122297677015525	0.8524326554248337	0.6484444083830647	-0.2177398242454333	-0.1544204608635733	-0.5746011950220867	0.8013971091889858	0.8013971091890264	-0.03326012459639009	0.1745017100855991	0.2730359174057311	0.138433534982792	0.3856132859256322	0.2297658991593169	0.4248704261552764	-1.847911766986341	0.0102524229302925	-0.1964581584233739	0.8739141384811914	-1.897643620409314	-1.897643620409306	0.4637845447639362	0.0005462522644192843	-0.5488930447132634	-0.1983859739655682	-0.105709657456768	-0.0005613929232146274	0.01762776145909789	-0.2895165814163688	0.02691499219032556	-0.009561926059204235	0.1685524980413872	-16.45945937146244	-32.92094979456837	-8.642760045512762	0.3443782052526792	-2.694030540286812	-612.165892998016	59.57281788773241	-0.09499911841355152	0.4031000015038708	-0.7389584232552194	-0.1503310873125289	-0.2441478793604672	-0.5951215900538493	1.272465574583568	-0.4384385671357824	-0.4384385671259869	0.3385779394575733	0.007000073189716969	-0.3227969975114909	-0.2822807385338558	1.026604286477549e-07	4.601462121046269e-08	-1.013156619523662e-06	5.454905955987287e-07	7.613336749953312e-08	1.916472206863844e-07	-7.410390029554439e-07
1.56	-0.02861171149072834	0.05354041683173242	0.8566435903238249	0.629960543418257	-0.2176492975865454	-0.156414372701871	-0.5657996028389978	0.7824016476963166	0.7824016476963561	-0.028606020826	0.1745068792795479	0.2675318860461632	0.136436360026811	0.3844614028115223	0.2336861773872498	0.4172355767049754	-1.848608971040889	0.007851225381015379	-0.2023128847166483	0.8862760175265928	-1.901174355770719	-1.901174355770646	0.4670019920217625	0.0004781949388025252	-0.5518211297199442	-0.2010053214967532	-0.09921883791517558	-0.002510959499821876	0.01743113302608277	-0.2860928637724486	0.02866157346828158	-0.01020706049781969	0.1624875175887662	-17.38491344311317	-32.1549053880758	-8.622702303433412	0.15144187198222	-2.78324805713138	-608.5128206848815	59.6623888443518	-0.1376920353635327	0.3806295972191119	-0.7883208129867146	0.01581648470030337	-0.2315282929825423	-0.569857212106467	1.202116747455509	-0.2645985469290921	-0.2645985469291059	0.2986284137101329	-0.03173025678012546	-0.260538607197355	-0.2341200192559179	1.06234754917836e-07	3.62691341305936e-08	-1.158270469443845e-06	4.018582963888669e-07	9.532512370438456e-08	1.883012958154725e-07	-7.90197437692527e-07
1.57	-0.02477433508951883	0.0558959339038706	0.8607758412659238	0.611477286950362	-0.2175826918948938	-0.1584670367478816	-0.5568784208625502	0.7633790690092815	0.7633790690092295	-0.0239214039203903	0.1745113937540398	0.2620013896666649	0.134414500340809	0.382951653110338	0.2373759023209739	0.4091410811100338	-1.847780108142253	0.005473689388635517	-0.2082000039754957	0.8978180494380368	-1.903056795869823	-1.903056795869814	0.4698810292299728	0.0004106478425379024	-0.5541812269223966	-0.2033167338163786	-0.09266506994206637	-0.004559586363502001	0.01723099565139244	-0.282971065758846	0.03059554079444346	-0.01092191747637099	0.1563975921980288	-18.29715942011457	-31.3558829301177	-8.636729279316963	-0.02511938786191996	-2.873624650390239	-605.1629667910386	59.76275010251864	-0.1669502337070437	0.3569690585986672	-0.8310069007254649	0.1557541206113125	-0.2403921952913644	-0.5950270130427652	1.108897164242949	-0.1074016487167681	-0.1074016487264462	0.2762902299256104	0.003630483661279531	-0.2091565419240588	-0.2223711358443053	1.110747112185418e-07	2.730985924544985e-08	-1.315181738419809e-06	2.530067014943979e-07	1.151886235560932e-07	1.85009156033485e-07	-8.354676152809812e-07
1.58	-0.02095392294456185	0.05828711324877586	0.8648249486584778	0.5930101856970891	-0.2175397667517464	-0.1605779495325386	-0.5478460884167369	0.7443461989397923	0.7443461989396495	-0.01920924687158764	0.1745148122415369	0.2564502100621116	0.1323709826721054	0.3810685515607083	0.2408186319406689	0.4006068667959837	-1.845377928116978	0.00311511567922841	-0.2139626324451041	0.908506111399648	-1.903232632261555	-1.903232632261611	0.4725100206601487	0.0002589975347180347	-0.5559577747310435	-0.2053369180371451	-0.0861113019689481	-0.006608213227192039	0.01703085827673247	-0.2798492677452371	0.0325295081206031	-0.01163677445493815	0.150307666807301	-19.1955268048036	-30.55796846135182	-8.652905622206992	-0.1991046158730591	-2.96991265947085	-601.8224345148785	59.8854782929528	-0.2123624050526448	0.331230534413287	-0.8762645568084261	0.330479910028018	-0.2277358363879859	-0.5449590542586256	1.031322757488971	0.07672219454519899	0.07672219454519974	0.2486192581032339	-0.04855089909119831	-0.1438287284362162	-0.1758743994840987	1.157275388378367e-07	1.953954348194401e-08	-1.460333647866463e-06	1.077596462373843e-07	1.331812359307747e-07	1.81846390888262e-07	-8.674232242587231e-07
1.59	-0.01715414737505376	0.06071141033166849	0.8687866125506822	0.5745749675478324	-0.2175201658103232	-0.1627463687718119	-0.5387114157593127	0.7253200697056168	0.7253200697055551	-0.01447263945134052	0.1745165522844017	0.2508841969382128	0.1303089502403502	0.3788261835100944	0.2439917614370883	0.3916606915433589	-1.841394293892229	0.0008142582900071343	-0.2196912237444336	0.9182637129405353	-1.901697717372569	-1.901697717372594	0.4747635739110302	7.071901967178304e-05	-0.5571458572501895	-0.2070151326037735	-0.07953596808913628	-0.00867876630158501	0.01679693984301127	-0.2769459605065498	0.03447252748982927	-0.01241185642995116	0.1442148792012088	-20.0798699918529	-29.78714299349862	-8.70640162348324	-0.3598057777036639	-3.003829296187331	-598.82502321114	60.00237562593992	-0.2392327335111454	0.3030322460675302	-0.9135416089313853	0.4730147339545696	-0.2300489970526226	-0.5822079888547576	0.9232727806809098	0.236176166497737	0.2361761665024651	0.206292483218817	-0.006758351764282936	-0.09138743010872148	-0.1559062933991474	1.201264061037883e-07	1.338281509780381e-08	-1.589526426523342e-06	-3.259553379736858e-08	1.48634786729491e-07	1.788592056072192e-07	-8.813090615504993e-07
